<svg width="122" height="14" viewBox="0 0 122 14" fill="none" xmlns="http://www.w3.org/2000/svg">
<path d="M3.206 6.702V9.53H4.228V6.702H6.846V5.722H4.228V2.894H3.206V5.722H0.588V6.702H3.206ZM13.0515 1.97L9.5655 11H10.8115L14.5635 1.158V0.99H7.9695V1.97H13.0515ZM21.8121 13.072H22.9741C21.7141 11.504 20.7061 9.516 20.7061 6.632C20.7061 3.762 21.7001 1.746 22.9741 0.177999H21.8121C20.5101 1.704 19.4881 3.846 19.4881 6.632C19.4881 9.418 20.5101 11.588 21.8121 13.072ZM28.5561 8.9V11H29.7461V8.9H31.1321V7.906H29.7461V0.99H28.1221L23.5441 8.508V8.9H28.5561ZM28.5561 7.906H25.0841L28.5561 1.914V7.906ZM35.8628 11.112C38.2708 11.112 39.6287 9.306 39.6287 5.96V5.33C39.6287 2.432 38.4248 0.85 36.0308 0.85C33.9168 0.85 32.5728 2.18 32.5728 4.196C32.5728 6.086 33.9028 7.472 35.8628 7.472C37.0248 7.472 37.9628 6.968 38.4528 6.142C38.4108 8.816 37.5008 10.118 35.8908 10.118C34.6028 10.118 34.0428 9.53 33.8188 8.536H32.6427C32.9088 10.16 34.0008 11.112 35.8628 11.112ZM36.0448 6.52C34.6868 6.52 33.8188 5.596 33.8188 4.14C33.8188 2.726 34.7288 1.802 36.0308 1.802C37.3748 1.802 38.3408 2.712 38.3408 4.35C38.3408 5.652 37.3888 6.52 36.0448 6.52ZM44.5825 11.126C46.4865 11.126 48.0125 9.852 48.0125 7.724C48.0125 5.68 46.6965 4.406 44.9045 4.406C43.9525 4.406 43.2665 4.714 42.8605 5.092V2.04H47.4805V0.99H41.8525V6.352H42.3005C42.8465 5.75 43.4905 5.386 44.6665 5.386C45.9545 5.386 46.7665 6.31 46.7665 7.724C46.7665 9.236 45.9265 10.146 44.5685 10.146C43.0565 10.146 42.6085 9.39 42.4125 8.298H41.2505C41.4045 9.936 42.4125 11.126 44.5825 11.126ZM49.3093 13.072H50.4713C51.7593 11.56 52.7953 9.404 52.7953 6.618C52.7953 3.804 51.7453 1.718 50.4713 0.177999H49.3093C50.5693 1.746 51.5773 3.734 51.5773 6.618C51.5773 9.488 50.5833 11.504 49.3093 13.072ZM60.1122 2.194V11H61.3302V0.99H60.1962L57.8722 2.67V3.804L60.1122 2.194ZM63.432 10.72V11H70.138V10.006H65.308L68.066 7.318C69.298 6.1 70.082 4.91 70.082 3.678C70.082 1.956 68.906 0.863999 67.058 0.863999C65.154 0.863999 63.964 2.11 63.81 4.07H64.944C65.154 2.488 65.882 1.844 67.058 1.844C68.192 1.844 68.85 2.516 68.85 3.636C68.85 4.658 68.318 5.568 67.408 6.534L63.432 10.72ZM75.1557 11.126C77.2277 11.126 78.7117 10.048 78.7117 8.214C78.7117 6.814 77.9557 6.016 76.7797 5.694C77.6897 5.316 78.3617 4.644 78.3617 3.51C78.3617 2.124 77.2557 0.863999 75.3517 0.863999C73.4477 0.863999 72.1457 2.18 72.0757 3.748H73.1397C73.2657 2.614 74.1057 1.858 75.3517 1.858C76.5837 1.858 77.1717 2.586 77.1717 3.538C77.1717 4.644 76.5977 5.246 75.2957 5.246H74.5957V6.268H75.3517C76.7657 6.268 77.4657 6.912 77.4657 8.214C77.4657 9.39 76.7657 10.146 75.1837 10.146C73.6157 10.146 72.8877 9.236 72.7757 8.046H71.6557C71.7257 9.782 73.0277 11.126 75.1557 11.126ZM80.5627 6.604V7.696H83.5587V6.604H80.5627ZM89.9154 8.9V11H91.1054V8.9H92.4914V7.906H91.1054V0.99H89.4814L84.9034 8.508V8.9H89.9154ZM89.9154 7.906H86.4434L89.9154 1.914V7.906ZM97.0961 11.126C99.0001 11.126 100.526 9.852 100.526 7.724C100.526 5.68 99.2101 4.406 97.4181 4.406C96.4661 4.406 95.7801 4.714 95.3741 5.092V2.04H99.9941V0.99H94.3661V6.352H94.8141C95.3601 5.75 96.0041 5.386 97.1801 5.386C98.4681 5.386 99.2801 6.31 99.2801 7.724C99.2801 9.236 98.4401 10.146 97.0821 10.146C95.5701 10.146 95.1221 9.39 94.9261 8.298H93.7641C93.9181 9.936 94.9261 11.126 97.0961 11.126ZM102.383 6.604V7.696H105.379V6.604H102.383ZM110.821 11.126C112.935 11.126 114.279 9.796 114.279 7.78C114.279 5.932 112.991 4.504 111.003 4.504C109.827 4.504 108.917 5.036 108.427 5.862C108.483 3.216 109.547 1.858 111.059 1.858C112.179 1.858 112.683 2.348 112.907 3.286H114.069C113.803 1.662 112.711 0.863999 111.143 0.863999C108.847 0.863999 107.223 2.74 107.223 6.338V6.576C107.223 9.082 108.077 11.126 110.821 11.126ZM110.821 10.174C109.477 10.174 108.511 9.306 108.511 7.668C108.511 6.366 109.463 5.456 110.807 5.456C112.165 5.456 113.033 6.38 113.033 7.836C113.033 9.25 112.123 10.174 110.821 10.174ZM120.471 1.97L116.985 11H118.231L121.983 1.158V0.99H115.389V1.97H120.471Z" fill="white"/>
</svg>
