<svg width="247" height="24" viewBox="0 0 247 24" fill="none" xmlns="http://www.w3.org/2000/svg">
<path d="M0.828125 5.78516H3.16016V20.9492H11.8789V23H0.828125V5.78516ZM23.0234 15.9453L20.4102 8.33984L17.6328 15.9453H23.0234ZM19.1914 5.78516H21.8281L28.0742 23H25.5195L23.7734 17.8438H16.9648L15.1016 23H12.7109L19.1914 5.78516ZM30.1953 5.78516H32.9492L41.6445 19.7305V5.78516H43.8594V23H41.2461L32.4219 9.06641V23H30.1953V5.78516ZM54.793 5.31641C56.9727 5.31641 58.6641 5.89062 59.8672 7.03906C61.0703 8.1875 61.7383 9.49219 61.8711 10.9531H59.5977C59.3398 9.84375 58.8242 8.96484 58.0508 8.31641C57.2852 7.66797 56.207 7.34375 54.8164 7.34375C53.1211 7.34375 51.75 7.94141 50.7031 9.13672C49.6641 10.3242 49.1445 12.1484 49.1445 14.6094C49.1445 16.625 49.6133 18.2617 50.5508 19.5195C51.4961 20.7695 52.9023 21.3945 54.7695 21.3945C56.4883 21.3945 57.7969 20.7344 58.6953 19.4141C59.1719 18.7188 59.5273 17.8047 59.7617 16.6719H62.0352C61.832 18.4844 61.1602 20.0039 60.0195 21.2305C58.6523 22.707 56.8086 23.4453 54.4883 23.4453C52.4883 23.4453 50.8086 22.8398 49.4492 21.6289C47.6602 20.0273 46.7656 17.5547 46.7656 14.2109C46.7656 11.6719 47.4375 9.58984 48.7812 7.96484C50.2344 6.19922 52.2383 5.31641 54.793 5.31641ZM72.3125 5.31641C75.3516 5.31641 77.6016 6.29297 79.0625 8.24609C80.2031 9.76953 80.7734 11.7188 80.7734 14.0938C80.7734 16.6641 80.1211 18.8008 78.8164 20.5039C77.2852 22.5039 75.1016 23.5039 72.2656 23.5039C69.6172 23.5039 67.5352 22.6289 66.0195 20.8789C64.668 19.1914 63.9922 17.0586 63.9922 14.4805C63.9922 12.1523 64.5703 10.1602 65.7266 8.50391C67.2109 6.37891 69.4062 5.31641 72.3125 5.31641ZM72.5469 21.418C74.6016 21.418 76.0859 20.6836 77 19.2148C77.9219 17.7383 78.3828 16.043 78.3828 14.1289C78.3828 12.1055 77.8516 10.4766 76.7891 9.24219C75.7344 8.00781 74.2891 7.39062 72.4531 7.39062C70.6719 7.39062 69.2188 8.00391 68.0938 9.23047C66.9688 10.4492 66.4062 12.25 66.4062 14.6328C66.4062 16.5391 66.8867 18.1484 67.8477 19.4609C68.8164 20.7656 70.3828 21.418 72.5469 21.418ZM73.6719 0.570312L76.0625 3.95703H74.1406L72.5586 1.70703L70.9766 3.95703H69.0664L71.4453 0.570312H73.6719ZM83.5039 5.78516H86.8438L91.7891 20.3398L96.6992 5.78516H100.004V23H97.7891V12.8398C97.7891 12.4883 97.7969 11.9062 97.8125 11.0938C97.8281 10.2812 97.8359 9.41016 97.8359 8.48047L92.9258 23H90.6172L85.6719 8.48047V9.00781C85.6719 9.42969 85.6797 10.0742 85.6953 10.9414C85.7188 11.8008 85.7305 12.4336 85.7305 12.8398V23H83.5039V5.78516ZM103.777 5.78516H116.328V7.89453H106.051V13.1211H115.555V15.1133H106.051V20.9492H116.504V23H103.777V5.78516ZM126.77 5.78516H129.125V23H126.77V5.78516ZM133.977 16.8711C133.977 18.2148 134.262 19.3398 134.832 20.2461C135.402 21.1523 136.316 21.6055 137.574 21.6055C138.551 21.6055 139.352 21.1875 139.977 20.3516C140.609 19.5078 140.926 18.3008 140.926 16.7305C140.926 15.1445 140.602 13.9727 139.953 13.2148C139.305 12.4492 138.504 12.0664 137.551 12.0664C136.488 12.0664 135.625 12.4727 134.961 13.2852C134.305 14.0977 133.977 15.293 133.977 16.8711ZM137.152 10.2266C138.113 10.2266 138.918 10.4297 139.566 10.8359C139.941 11.0703 140.367 11.4805 140.844 12.0664V5.72656H142.871V23H140.973V21.2539C140.48 22.0273 139.898 22.5859 139.227 22.9297C138.555 23.2734 137.785 23.4453 136.918 23.4453C135.52 23.4453 134.309 22.8594 133.285 21.6875C132.262 20.5078 131.75 18.9414 131.75 16.9883C131.75 15.1602 132.215 13.5781 133.145 12.2422C134.082 10.8984 135.418 10.2266 137.152 10.2266ZM150.98 21.6406C152.379 21.6406 153.336 21.1133 153.852 20.0586C154.375 18.9961 154.637 17.8164 154.637 16.5195C154.637 15.3477 154.449 14.3945 154.074 13.6602C153.48 12.5039 152.457 11.9258 151.004 11.9258C149.715 11.9258 148.777 12.418 148.191 13.4023C147.605 14.3867 147.312 15.5742 147.312 16.9648C147.312 18.3008 147.605 19.4141 148.191 20.3047C148.777 21.1953 149.707 21.6406 150.98 21.6406ZM151.062 10.0859C152.68 10.0859 154.047 10.625 155.164 11.7031C156.281 12.7812 156.84 14.3672 156.84 16.4609C156.84 18.4844 156.348 20.1562 155.363 21.4766C154.379 22.7969 152.852 23.457 150.781 23.457C149.055 23.457 147.684 22.875 146.668 21.7109C145.652 20.5391 145.145 18.9688 145.145 17C145.145 14.8906 145.68 13.2109 146.75 11.9609C147.82 10.7109 149.258 10.0859 151.062 10.0859ZM152.281 5.39844L154.672 8.78516H152.75L151.168 6.53516L149.586 8.78516H147.676L150.055 5.39844H152.281ZM159.418 5.78516H161.527V23H159.418V5.78516ZM169.93 10.168C170.82 10.168 171.684 10.3789 172.52 10.8008C173.355 11.2148 173.992 11.7539 174.43 12.418C174.852 13.0508 175.133 13.7891 175.273 14.6328C175.398 15.2109 175.461 16.1328 175.461 17.3984H166.262C166.301 18.6719 166.602 19.6953 167.164 20.4688C167.727 21.2344 168.598 21.6172 169.777 21.6172C170.879 21.6172 171.758 21.2539 172.414 20.5273C172.789 20.1055 173.055 19.6172 173.211 19.0625H175.285C175.23 19.5234 175.047 20.0391 174.734 20.6094C174.43 21.1719 174.086 21.6328 173.703 21.9922C173.062 22.6172 172.27 23.0391 171.324 23.2578C170.816 23.3828 170.242 23.4453 169.602 23.4453C168.039 23.4453 166.715 22.8789 165.629 21.7461C164.543 20.6055 164 19.0117 164 16.9648C164 14.9492 164.547 13.3125 165.641 12.0547C166.734 10.7969 168.164 10.168 169.93 10.168ZM173.293 15.7227C173.207 14.8086 173.008 14.0781 172.695 13.5312C172.117 12.5156 171.152 12.0078 169.801 12.0078C168.832 12.0078 168.02 12.3594 167.363 13.0625C166.707 13.7578 166.359 14.6445 166.32 15.7227H173.293ZM188.656 5.78516H190.438L184.977 23H183.195L188.656 5.78516ZM196.066 23C196.132 21.7956 196.379 20.7474 196.809 19.8555C197.245 18.9635 198.091 18.153 199.348 17.4238L201.223 16.3398C202.062 15.8516 202.652 15.4349 202.99 15.0898C203.524 14.5495 203.791 13.931 203.791 13.2344C203.791 12.4206 203.547 11.776 203.059 11.3008C202.57 10.819 201.919 10.5781 201.105 10.5781C199.901 10.5781 199.068 11.0339 198.605 11.9453C198.358 12.4336 198.221 13.1107 198.195 13.9766H196.408C196.428 12.7591 196.652 11.7663 197.082 10.998C197.844 9.64388 199.188 8.9668 201.115 8.9668C202.717 8.9668 203.885 9.39974 204.621 10.2656C205.363 11.1315 205.734 12.0951 205.734 13.1562C205.734 14.276 205.34 15.2331 204.553 16.0273C204.097 16.4896 203.28 17.0495 202.102 17.707L200.764 18.4492C200.126 18.8008 199.624 19.1361 199.26 19.4551C198.609 20.0215 198.199 20.6497 198.029 21.3398H205.666V23H196.066ZM209.045 19.4355C209.162 20.4382 209.628 21.1315 210.441 21.5156C210.858 21.7109 211.34 21.8086 211.887 21.8086C212.928 21.8086 213.7 21.4766 214.201 20.8125C214.702 20.1484 214.953 19.4128 214.953 18.6055C214.953 17.6289 214.654 16.8737 214.055 16.3398C213.462 15.806 212.749 15.5391 211.916 15.5391C211.311 15.5391 210.79 15.6562 210.354 15.8906C209.924 16.125 209.556 16.4505 209.25 16.8672L207.727 16.7793L208.791 9.25H216.057V10.9492H210.109L209.514 14.8359C209.839 14.5885 210.148 14.403 210.441 14.2793C210.962 14.0645 211.564 13.957 212.248 13.957C213.531 13.957 214.618 14.3704 215.51 15.1973C216.402 16.0241 216.848 17.0723 216.848 18.3418C216.848 19.6634 216.438 20.8288 215.617 21.8379C214.803 22.847 213.501 23.3516 211.711 23.3516C210.572 23.3516 209.562 23.0326 208.684 22.3945C207.811 21.75 207.323 20.7637 207.219 19.4355H209.045ZM224.592 12.541H227.209L229.973 21.1152H230.012L232.814 12.541H235.275V23H233.596V14.582H233.557L230.793 23H229.074L226.311 14.582H226.271V23H224.592V12.541ZM244.953 14.1035H240.949L240.871 16.6133C240.832 17.8828 240.734 18.944 240.578 19.7969C240.422 20.6432 240.207 21.3236 239.934 21.8379C239.667 22.3522 239.341 22.7168 238.957 22.9316C238.573 23.1465 238.133 23.2539 237.639 23.2539C237.456 23.2539 237.297 23.2246 237.16 23.166C237.03 23.1139 236.929 23.0586 236.857 23V21.418C237.111 21.5156 237.336 21.5645 237.531 21.5645C237.668 21.5645 237.798 21.5417 237.922 21.4961C238.052 21.4505 238.173 21.3626 238.283 21.2324C238.4 21.1022 238.508 20.9199 238.605 20.6855C238.703 20.4447 238.788 20.1322 238.859 19.748C238.938 19.3639 238.999 18.8984 239.045 18.3516C239.097 17.8047 239.133 17.1536 239.152 16.3984L239.24 12.541H246.75V23H244.953V14.1035Z" fill="black"/>
</svg>
