<svg width="247" height="24" viewBox="0 0 247 24" fill="none" xmlns="http://www.w3.org/2000/svg">
<path d="M0.75 5.78516H3.08203V20.9492H11.8008V23H0.75V5.78516ZM22.9453 15.9453L20.332 8.33984L17.5547 15.9453H22.9453ZM19.1133 5.78516H21.75L27.9961 23H25.4414L23.6953 17.8438H16.8867L15.0234 23H12.6328L19.1133 5.78516ZM30.1172 5.78516H32.8711L41.5664 19.7305V5.78516H43.7812V23H41.168L32.3438 9.06641V23H30.1172V5.78516ZM54.7148 5.31641C56.8945 5.31641 58.5859 5.89062 59.7891 7.03906C60.9922 8.1875 61.6602 9.49219 61.793 10.9531H59.5195C59.2617 9.84375 58.7461 8.96484 57.9727 8.31641C57.207 7.66797 56.1289 7.34375 54.7383 7.34375C53.043 7.34375 51.6719 7.94141 50.625 9.13672C49.5859 10.3242 49.0664 12.1484 49.0664 14.6094C49.0664 16.625 49.5352 18.2617 50.4727 19.5195C51.418 20.7695 52.8242 21.3945 54.6914 21.3945C56.4102 21.3945 57.7188 20.7344 58.6172 19.4141C59.0938 18.7188 59.4492 17.8047 59.6836 16.6719H61.957C61.7539 18.4844 61.082 20.0039 59.9414 21.2305C58.5742 22.707 56.7305 23.4453 54.4102 23.4453C52.4102 23.4453 50.7305 22.8398 49.3711 21.6289C47.582 20.0273 46.6875 17.5547 46.6875 14.2109C46.6875 11.6719 47.3594 9.58984 48.7031 7.96484C50.1562 6.19922 52.1602 5.31641 54.7148 5.31641ZM72.2344 5.31641C75.2734 5.31641 77.5234 6.29297 78.9844 8.24609C80.125 9.76953 80.6953 11.7188 80.6953 14.0938C80.6953 16.6641 80.043 18.8008 78.7383 20.5039C77.207 22.5039 75.0234 23.5039 72.1875 23.5039C69.5391 23.5039 67.457 22.6289 65.9414 20.8789C64.5898 19.1914 63.9141 17.0586 63.9141 14.4805C63.9141 12.1523 64.4922 10.1602 65.6484 8.50391C67.1328 6.37891 69.3281 5.31641 72.2344 5.31641ZM72.4688 21.418C74.5234 21.418 76.0078 20.6836 76.9219 19.2148C77.8438 17.7383 78.3047 16.043 78.3047 14.1289C78.3047 12.1055 77.7734 10.4766 76.7109 9.24219C75.6562 8.00781 74.2109 7.39062 72.375 7.39062C70.5938 7.39062 69.1406 8.00391 68.0156 9.23047C66.8906 10.4492 66.3281 12.25 66.3281 14.6328C66.3281 16.5391 66.8086 18.1484 67.7695 19.4609C68.7383 20.7656 70.3047 21.418 72.4688 21.418ZM73.5938 0.570312L75.9844 3.95703H74.0625L72.4805 1.70703L70.8984 3.95703H68.9883L71.3672 0.570312H73.5938ZM83.4258 5.78516H86.7656L91.7109 20.3398L96.6211 5.78516H99.9258V23H97.7109V12.8398C97.7109 12.4883 97.7188 11.9062 97.7344 11.0938C97.75 10.2812 97.7578 9.41016 97.7578 8.48047L92.8477 23H90.5391L85.5938 8.48047V9.00781C85.5938 9.42969 85.6016 10.0742 85.6172 10.9414C85.6406 11.8008 85.6523 12.4336 85.6523 12.8398V23H83.4258V5.78516ZM103.699 5.78516H116.25V7.89453H105.973V13.1211H115.477V15.1133H105.973V20.9492H116.426V23H103.699V5.78516ZM126.691 5.78516H129.047V23H126.691V5.78516ZM133.898 16.8711C133.898 18.2148 134.184 19.3398 134.754 20.2461C135.324 21.1523 136.238 21.6055 137.496 21.6055C138.473 21.6055 139.273 21.1875 139.898 20.3516C140.531 19.5078 140.848 18.3008 140.848 16.7305C140.848 15.1445 140.523 13.9727 139.875 13.2148C139.227 12.4492 138.426 12.0664 137.473 12.0664C136.41 12.0664 135.547 12.4727 134.883 13.2852C134.227 14.0977 133.898 15.293 133.898 16.8711ZM137.074 10.2266C138.035 10.2266 138.84 10.4297 139.488 10.8359C139.863 11.0703 140.289 11.4805 140.766 12.0664V5.72656H142.793V23H140.895V21.2539C140.402 22.0273 139.82 22.5859 139.148 22.9297C138.477 23.2734 137.707 23.4453 136.84 23.4453C135.441 23.4453 134.23 22.8594 133.207 21.6875C132.184 20.5078 131.672 18.9414 131.672 16.9883C131.672 15.1602 132.137 13.5781 133.066 12.2422C134.004 10.8984 135.34 10.2266 137.074 10.2266ZM150.902 21.6406C152.301 21.6406 153.258 21.1133 153.773 20.0586C154.297 18.9961 154.559 17.8164 154.559 16.5195C154.559 15.3477 154.371 14.3945 153.996 13.6602C153.402 12.5039 152.379 11.9258 150.926 11.9258C149.637 11.9258 148.699 12.418 148.113 13.4023C147.527 14.3867 147.234 15.5742 147.234 16.9648C147.234 18.3008 147.527 19.4141 148.113 20.3047C148.699 21.1953 149.629 21.6406 150.902 21.6406ZM150.984 10.0859C152.602 10.0859 153.969 10.625 155.086 11.7031C156.203 12.7812 156.762 14.3672 156.762 16.4609C156.762 18.4844 156.27 20.1562 155.285 21.4766C154.301 22.7969 152.773 23.457 150.703 23.457C148.977 23.457 147.605 22.875 146.59 21.7109C145.574 20.5391 145.066 18.9688 145.066 17C145.066 14.8906 145.602 13.2109 146.672 11.9609C147.742 10.7109 149.18 10.0859 150.984 10.0859ZM152.203 5.39844L154.594 8.78516H152.672L151.09 6.53516L149.508 8.78516H147.598L149.977 5.39844H152.203ZM159.34 5.78516H161.449V23H159.34V5.78516ZM169.852 10.168C170.742 10.168 171.605 10.3789 172.441 10.8008C173.277 11.2148 173.914 11.7539 174.352 12.418C174.773 13.0508 175.055 13.7891 175.195 14.6328C175.32 15.2109 175.383 16.1328 175.383 17.3984H166.184C166.223 18.6719 166.523 19.6953 167.086 20.4688C167.648 21.2344 168.52 21.6172 169.699 21.6172C170.801 21.6172 171.68 21.2539 172.336 20.5273C172.711 20.1055 172.977 19.6172 173.133 19.0625H175.207C175.152 19.5234 174.969 20.0391 174.656 20.6094C174.352 21.1719 174.008 21.6328 173.625 21.9922C172.984 22.6172 172.191 23.0391 171.246 23.2578C170.738 23.3828 170.164 23.4453 169.523 23.4453C167.961 23.4453 166.637 22.8789 165.551 21.7461C164.465 20.6055 163.922 19.0117 163.922 16.9648C163.922 14.9492 164.469 13.3125 165.562 12.0547C166.656 10.7969 168.086 10.168 169.852 10.168ZM173.215 15.7227C173.129 14.8086 172.93 14.0781 172.617 13.5312C172.039 12.5156 171.074 12.0078 169.723 12.0078C168.754 12.0078 167.941 12.3594 167.285 13.0625C166.629 13.7578 166.281 14.6445 166.242 15.7227H173.215ZM188.578 5.78516H190.359L184.898 23H183.117L188.578 5.78516ZM197.834 19.4355C197.951 20.4382 198.417 21.1315 199.23 21.5156C199.647 21.7109 200.129 21.8086 200.676 21.8086C201.717 21.8086 202.489 21.4766 202.99 20.8125C203.492 20.1484 203.742 19.4128 203.742 18.6055C203.742 17.6289 203.443 16.8737 202.844 16.3398C202.251 15.806 201.538 15.5391 200.705 15.5391C200.1 15.5391 199.579 15.6562 199.143 15.8906C198.713 16.125 198.345 16.4505 198.039 16.8672L196.516 16.7793L197.58 9.25H204.846V10.9492H198.898L198.303 14.8359C198.628 14.5885 198.938 14.403 199.23 14.2793C199.751 14.0645 200.354 13.957 201.037 13.957C202.32 13.957 203.407 14.3704 204.299 15.1973C205.191 16.0241 205.637 17.0723 205.637 18.3418C205.637 19.6634 205.227 20.8288 204.406 21.8379C203.592 22.847 202.29 23.3516 200.5 23.3516C199.361 23.3516 198.352 23.0326 197.473 22.3945C196.6 21.75 196.112 20.7637 196.008 19.4355H197.834ZM211.906 9.01562C213.716 9.01562 215.025 9.76107 215.832 11.252C216.457 12.4043 216.77 13.9831 216.77 15.9883C216.77 17.8893 216.486 19.4616 215.92 20.7051C215.1 22.4889 213.758 23.3809 211.896 23.3809C210.217 23.3809 208.967 22.6517 208.146 21.1934C207.463 19.9759 207.121 18.3418 207.121 16.291C207.121 14.7025 207.326 13.3385 207.736 12.1992C208.505 10.0768 209.895 9.01562 211.906 9.01562ZM211.887 21.7793C212.798 21.7793 213.524 21.3757 214.064 20.5684C214.605 19.7611 214.875 18.2572 214.875 16.0566C214.875 14.4681 214.68 13.1628 214.289 12.1406C213.898 11.112 213.14 10.5977 212.014 10.5977C210.979 10.5977 210.22 11.0859 209.738 12.0625C209.263 13.0326 209.025 14.4648 209.025 16.3594C209.025 17.7852 209.178 18.931 209.484 19.7969C209.953 21.1185 210.754 21.7793 211.887 21.7793ZM224.514 12.541H227.131L229.895 21.1152H229.934L232.736 12.541H235.197V23H233.518V14.582H233.479L230.715 23H228.996L226.232 14.582H226.193V23H224.514V12.541ZM244.875 14.1035H240.871L240.793 16.6133C240.754 17.8828 240.656 18.944 240.5 19.7969C240.344 20.6432 240.129 21.3236 239.855 21.8379C239.589 22.3522 239.263 22.7168 238.879 22.9316C238.495 23.1465 238.055 23.2539 237.561 23.2539C237.378 23.2539 237.219 23.2246 237.082 23.166C236.952 23.1139 236.851 23.0586 236.779 23V21.418C237.033 21.5156 237.258 21.5645 237.453 21.5645C237.59 21.5645 237.72 21.5417 237.844 21.4961C237.974 21.4505 238.094 21.3626 238.205 21.2324C238.322 21.1022 238.43 20.9199 238.527 20.6855C238.625 20.4447 238.71 20.1322 238.781 19.748C238.859 19.3639 238.921 18.8984 238.967 18.3516C239.019 17.8047 239.055 17.1536 239.074 16.3984L239.162 12.541H246.672V23H244.875V14.1035Z" fill="black"/>
</svg>
