<svg width="393" height="50" viewBox="0 0 393 50" fill="none" xmlns="http://www.w3.org/2000/svg">
<rect width="393" height="50" fill="black"/>
<path d="M130.57 19.032L126.664 22.966L130.934 29H128.19L125.166 24.52L123.892 25.78V29H121.736V19.032H123.892V23.176L127.812 19.032H130.57ZM133.673 28.958V27.11C134.028 27.2593 134.378 27.334 134.723 27.334C135.041 27.334 135.288 27.2547 135.465 27.096C135.643 26.928 135.731 26.7227 135.731 26.48C135.731 26.396 135.722 26.312 135.703 26.228C135.685 26.144 135.657 26.0507 135.619 25.948C135.582 25.8453 135.549 25.766 135.521 25.71C135.493 25.6447 135.447 25.5513 135.381 25.43C135.325 25.3087 135.288 25.2293 135.269 25.192L132.343 19.032H134.765L137.019 24.282L139.231 19.032H141.569L138.209 26.368C137.733 27.4133 137.257 28.146 136.781 28.566C136.305 28.9767 135.675 29.182 134.891 29.182C134.453 29.182 134.047 29.1073 133.673 28.958ZM152.391 19.032V29H150.207V20.894H146.133V29H143.949V19.032H152.391ZM164.168 19.032V29H161.984V22.084H161.942L158.19 29H155.726V19.032H157.91V25.934H157.952L161.704 19.032H164.168ZM174.909 19.032V20.894H171.913V29H169.715V20.894H166.719V19.032H174.909ZM185.498 25.794C185.498 26.858 185.166 27.6607 184.504 28.202C183.85 28.734 182.964 29 181.844 29H177.434V19.032H179.604V22.616H181.956C183.01 22.616 183.864 22.8867 184.518 23.428C185.171 23.96 185.498 24.7487 185.498 25.794ZM183.37 25.766C183.37 24.814 182.8 24.338 181.662 24.338H179.604V27.208H181.676C182.805 27.208 183.37 26.7273 183.37 25.766ZM201.938 19.032V29H199.754V24.702H195.68V29H193.496V19.032H195.68V22.784H199.754V19.032H201.938ZM209.781 18.794C211.237 18.794 212.413 19.2793 213.309 20.25C214.214 21.2113 214.667 22.4713 214.667 24.03C214.667 25.5887 214.214 26.8487 213.309 27.81C212.413 28.762 211.232 29.238 209.767 29.238C208.292 29.238 207.102 28.762 206.197 27.81C205.292 26.8487 204.839 25.5887 204.839 24.03C204.839 22.4527 205.287 21.188 206.183 20.236C207.088 19.2747 208.288 18.794 209.781 18.794ZM209.753 20.586C208.932 20.586 208.274 20.894 207.779 21.51C207.294 22.126 207.051 22.952 207.051 23.988C207.051 25.0613 207.294 25.9013 207.779 26.508C208.264 27.1147 208.932 27.4227 209.781 27.432C210.612 27.432 211.265 27.124 211.741 26.508C212.217 25.892 212.455 25.052 212.455 23.988C212.455 22.9427 212.212 22.1167 211.727 21.51C211.242 20.894 210.584 20.586 209.753 20.586ZM217.556 19.032H222.274C223.207 19.032 223.968 19.242 224.556 19.662C225.153 20.0727 225.452 20.698 225.452 21.538C225.452 22.0047 225.33 22.42 225.088 22.784C224.845 23.1387 224.514 23.4093 224.094 23.596C225.307 23.9413 225.914 24.7533 225.914 26.032C225.914 26.9747 225.596 27.7073 224.962 28.23C224.327 28.7433 223.52 29 222.54 29H217.556V19.032ZM219.684 20.726V23.064H221.672C222.773 23.064 223.324 22.6767 223.324 21.902C223.324 21.4447 223.174 21.1367 222.876 20.978C222.577 20.81 222.176 20.726 221.672 20.726H219.684ZM219.684 24.548V27.264H221.882C222.451 27.264 222.899 27.1707 223.226 26.984C223.562 26.7973 223.73 26.438 223.73 25.906C223.73 25.3647 223.552 25.0053 223.198 24.828C222.852 24.6413 222.376 24.548 221.77 24.548H219.684ZM237.269 19.032V29H235.085V22.084H235.043L231.291 29H228.827V19.032H231.011V25.934H231.053L234.805 19.032H237.269ZM249.046 19.032V29H246.862V24.702H242.788V29H240.604V19.032H242.788V22.784H246.862V19.032H249.046ZM261.243 19.032L257.337 22.966L261.607 29H258.863L255.839 24.52L254.565 25.78V29H252.409V19.032H254.565V23.176L258.485 19.032H261.243ZM264.346 28.958V27.11C264.701 27.2593 265.051 27.334 265.396 27.334C265.714 27.334 265.961 27.2547 266.138 27.096C266.316 26.928 266.404 26.7227 266.404 26.48C266.404 26.396 266.395 26.312 266.376 26.228C266.358 26.144 266.33 26.0507 266.292 25.948C266.255 25.8453 266.222 25.766 266.194 25.71C266.166 25.6447 266.12 25.5513 266.054 25.43C265.998 25.3087 265.961 25.2293 265.942 25.192L263.016 19.032H265.438L267.692 24.282L269.904 19.032H272.242L268.882 26.368C268.406 27.4133 267.93 28.146 267.454 28.566C266.978 28.9767 266.348 29.182 265.564 29.182C265.126 29.182 264.72 29.1073 264.346 28.958Z" fill="white"/>
</svg>
