<svg width="320" height="130" viewBox="0 0 320 130" fill="none" xmlns="http://www.w3.org/2000/svg">
<rect x="20" y="30" width="280" height="50" fill="black"/>
<path d="M106.048 51.168L102.979 54.259L106.334 59H104.178L101.802 55.48L100.801 56.47V59H99.1075V51.168H100.801V54.424L103.881 51.168H106.048ZM108.787 58.967V57.515C109.066 57.6323 109.341 57.691 109.612 57.691C109.861 57.691 110.056 57.6287 110.195 57.504C110.334 57.372 110.404 57.2107 110.404 57.02C110.404 56.954 110.397 56.888 110.382 56.822C110.367 56.756 110.345 56.6827 110.316 56.602C110.287 56.5213 110.261 56.459 110.239 56.415C110.217 56.3637 110.18 56.2903 110.129 56.195C110.085 56.0997 110.056 56.0373 110.041 56.008L107.742 51.168H109.645L111.416 55.293L113.154 51.168H114.991L112.351 56.932C111.977 57.7533 111.603 58.329 111.229 58.659C110.855 58.9817 110.36 59.143 109.744 59.143C109.399 59.143 109.08 59.0843 108.787 58.967ZM123.794 51.168V59H122.078V52.631H118.877V59H117.161V51.168H123.794ZM133.347 51.168V59H131.631V53.566H131.598L128.65 59H126.714V51.168H128.43V56.591H128.463L131.411 51.168H133.347ZM142.086 51.168V52.631H139.732V59H138.005V52.631H135.651V51.168H142.086ZM150.706 56.481C150.706 57.317 150.446 57.9477 149.925 58.373C149.412 58.791 148.715 59 147.835 59H144.37V51.168H146.075V53.984H147.923C148.752 53.984 149.423 54.1967 149.936 54.622C150.449 55.04 150.706 55.6597 150.706 56.481ZM149.034 56.459C149.034 55.711 148.587 55.337 147.692 55.337H146.075V57.592H147.703C148.59 57.592 149.034 57.2143 149.034 56.459ZM164.224 51.168V59H162.508V55.623H159.307V59H157.591V51.168H159.307V54.116H162.508V51.168H164.224ZM170.686 50.981C171.83 50.981 172.754 51.3623 173.458 52.125C174.169 52.8803 174.525 53.8703 174.525 55.095C174.525 56.3197 174.169 57.3097 173.458 58.065C172.754 58.813 171.826 59.187 170.675 59.187C169.516 59.187 168.581 58.813 167.87 58.065C167.159 57.3097 166.803 56.3197 166.803 55.095C166.803 53.8557 167.155 52.862 167.859 52.114C168.57 51.3587 169.513 50.981 170.686 50.981ZM170.664 52.389C170.019 52.389 169.502 52.631 169.113 53.115C168.732 53.599 168.541 54.248 168.541 55.062C168.541 55.9053 168.732 56.5653 169.113 57.042C169.494 57.5187 170.019 57.7607 170.686 57.768C171.339 57.768 171.852 57.526 172.226 57.042C172.6 56.558 172.787 55.898 172.787 55.062C172.787 54.2407 172.596 53.5917 172.215 53.115C171.834 52.631 171.317 52.389 170.664 52.389ZM177.094 51.168H180.801C181.535 51.168 182.132 51.333 182.594 51.663C183.064 51.9857 183.298 52.477 183.298 53.137C183.298 53.5037 183.203 53.83 183.012 54.116C182.822 54.3947 182.561 54.6073 182.231 54.754C183.185 55.0253 183.661 55.6633 183.661 56.668C183.661 57.4087 183.412 57.9843 182.913 58.395C182.415 58.7983 181.78 59 181.01 59H177.094V51.168ZM178.766 52.499V54.336H180.328C181.194 54.336 181.626 54.0317 181.626 53.423C181.626 53.0637 181.509 52.8217 181.274 52.697C181.04 52.565 180.724 52.499 180.328 52.499H178.766ZM178.766 55.502V57.636H180.493C180.941 57.636 181.293 57.5627 181.549 57.416C181.813 57.2693 181.945 56.987 181.945 56.569C181.945 56.1437 181.806 55.8613 181.527 55.722C181.256 55.5753 180.882 55.502 180.405 55.502H178.766ZM192.884 51.168V59H191.168V53.566H191.135L188.187 59H186.251V51.168H187.967V56.591H188L190.948 51.168H192.884ZM202.437 51.168V59H200.721V55.623H197.52V59H195.804V51.168H197.52V54.116H200.721V51.168H202.437ZM212.32 51.168L209.251 54.259L212.606 59H210.45L208.074 55.48L207.073 56.47V59H205.379V51.168H207.073V54.424L210.153 51.168H212.32ZM215.059 58.967V57.515C215.337 57.6323 215.612 57.691 215.884 57.691C216.133 57.691 216.327 57.6287 216.467 57.504C216.606 57.372 216.676 57.2107 216.676 57.02C216.676 56.954 216.668 56.888 216.654 56.822C216.639 56.756 216.617 56.6827 216.588 56.602C216.558 56.5213 216.533 56.459 216.511 56.415C216.489 56.3637 216.452 56.2903 216.401 56.195C216.357 56.0997 216.327 56.0373 216.313 56.008L214.014 51.168H215.917L217.688 55.293L219.426 51.168H221.263L218.623 56.932C218.249 57.7533 217.875 58.329 217.501 58.659C217.127 58.9817 216.632 59.143 216.016 59.143C215.671 59.143 215.352 59.0843 215.059 58.967Z" fill="white"/>
</svg>
