<svg width="280" height="50" viewBox="0 0 280 50" fill="none" xmlns="http://www.w3.org/2000/svg">
<rect width="280" height="50" fill="white"/>
<path d="M56.8561 21.1045H63.2584V29H61.6095V22.4634H58.5104V29H56.8561V21.1045ZM66.3396 21.1045H69.9274C70.3464 21.1045 70.7098 21.1618 71.0178 21.2764C71.3293 21.391 71.5871 21.5575 71.7912 21.7759C71.9953 21.9943 72.1475 22.2593 72.2478 22.5708C72.348 22.8823 72.3981 23.2368 72.3981 23.6343C72.3981 24.0031 72.3391 24.3433 72.2209 24.6548C72.1027 24.9627 71.9309 25.2295 71.7053 25.4551C71.4833 25.6771 71.2111 25.8507 70.8889 25.9761C70.5666 26.1014 70.2014 26.1641 69.7932 26.1641H67.9885V29H66.3396V21.1045ZM67.9885 24.7998H69.5515C69.9239 24.7998 70.2157 24.7085 70.427 24.5259C70.6418 24.3433 70.7492 24.0461 70.7492 23.6343C70.7492 23.4266 70.7206 23.2493 70.6633 23.1025C70.6096 22.9557 70.5308 22.8358 70.427 22.7427C70.3267 22.646 70.2014 22.5762 70.051 22.5332C69.9042 22.4867 69.7377 22.4634 69.5515 22.4634H67.9885V24.7998ZM74.9422 21.1045H76.5267V26.481H76.5481L79.6741 21.1045H81.3445V29H79.7601V23.6558H79.7386L76.618 29H74.9422V21.1045ZM84.2914 21.1045H86.703L88.0888 27.249H88.1103L89.496 21.1045H91.9184V29H90.3983V22.3989H90.3769L88.8783 29H87.2724L85.8329 22.3989H85.8114V29H84.2914V21.1045ZM94.9888 21.1045H100.784V22.4634H96.5732V24.2144H100.446V25.5786H96.5732V27.5713H100.972V29H94.9888V21.1045ZM103.591 21.1045H105.246V24.1069H108.345V21.1045H109.994V29H108.345V25.4712H105.246V29H103.591V21.1045ZM112.941 21.1045H114.525V26.481H114.547L117.673 21.1045H119.343V29H117.758V23.6558H117.737L114.616 29H112.941V21.1045ZM121.656 21.1045H128.123V22.4634H125.711V29H124.062V22.4634H121.656V21.1045ZM132.208 27.6357H133.605C133.755 27.6357 133.909 27.625 134.067 27.6035C134.228 27.582 134.375 27.5355 134.507 27.4639C134.643 27.3923 134.754 27.2866 134.84 27.147C134.926 27.0037 134.969 26.814 134.969 26.5776C134.969 26.3306 134.926 26.1372 134.84 25.9976C134.758 25.8543 134.649 25.7469 134.513 25.6753C134.377 25.6037 134.223 25.5589 134.051 25.541C133.882 25.5231 133.712 25.5142 133.54 25.5142H132.208V27.6357ZM130.559 21.1045H132.208V24.2144H133.782C133.9 24.2144 134.051 24.2179 134.233 24.2251C134.419 24.2323 134.618 24.2591 134.829 24.3057C135.041 24.3486 135.252 24.4185 135.463 24.5151C135.675 24.6118 135.866 24.7497 136.038 24.9287C136.21 25.1042 136.35 25.3298 136.457 25.6055C136.564 25.8776 136.618 26.2142 136.618 26.6152C136.618 27.0127 136.564 27.3475 136.457 27.6196C136.35 27.8918 136.212 28.1174 136.043 28.2964C135.879 28.4718 135.694 28.6079 135.49 28.7046C135.29 28.7977 135.093 28.8675 134.899 28.9141C134.71 28.957 134.534 28.9821 134.373 28.9893C134.215 28.9964 134.099 29 134.024 29H130.559V21.1045ZM143.624 21.1045H150.026V29H148.377V22.4634H145.278V29H143.624V21.1045ZM153.107 21.1045H156.695C157.114 21.1045 157.477 21.1618 157.785 21.2764C158.097 21.391 158.355 21.5575 158.559 21.7759C158.763 21.9943 158.915 22.2593 159.015 22.5708C159.116 22.8823 159.166 23.2368 159.166 23.6343C159.166 24.0031 159.107 24.3433 158.988 24.6548C158.87 24.9627 158.698 25.2295 158.473 25.4551C158.251 25.6771 157.979 25.8507 157.656 25.9761C157.334 26.1014 156.969 26.1641 156.561 26.1641H154.756V29H153.107V21.1045ZM154.756 24.7998H156.319C156.691 24.7998 156.983 24.7085 157.195 24.5259C157.409 24.3433 157.517 24.0461 157.517 23.6343C157.517 23.4266 157.488 23.2493 157.431 23.1025C157.377 22.9557 157.298 22.8358 157.195 22.7427C157.094 22.646 156.969 22.5762 156.819 22.5332C156.672 22.4867 156.505 22.4634 156.319 22.4634H154.756V24.7998ZM161.425 25.0522C161.425 24.4614 161.504 23.9136 161.661 23.4087C161.819 22.9038 162.055 22.467 162.37 22.0981C162.686 21.7257 163.081 21.4339 163.557 21.2227C164.034 21.0114 164.589 20.9058 165.222 20.9058C165.806 20.9058 166.332 21.0114 166.802 21.2227C167.271 21.4339 167.668 21.7257 167.994 22.0981C168.323 22.467 168.576 22.9038 168.751 23.4087C168.927 23.9136 169.014 24.4614 169.014 25.0522C169.014 25.6395 168.927 26.1873 168.751 26.6958C168.576 27.2007 168.323 27.6393 167.994 28.0117C167.668 28.3805 167.271 28.6706 166.802 28.8818C166.332 29.0931 165.806 29.1987 165.222 29.1987C164.589 29.1987 164.034 29.0931 163.557 28.8818C163.081 28.6706 162.686 28.3805 162.37 28.0117C162.055 27.6393 161.819 27.2007 161.661 26.6958C161.504 26.1873 161.425 25.6395 161.425 25.0522ZM165.222 27.77C165.559 27.77 165.86 27.702 166.125 27.5659C166.39 27.4299 166.614 27.2419 166.796 27.002C166.982 26.7585 167.124 26.472 167.221 26.1426C167.317 25.8096 167.366 25.4461 167.366 25.0522C167.366 24.6584 167.317 24.2967 167.221 23.9673C167.124 23.6343 166.982 23.3478 166.796 23.1079C166.614 22.8644 166.39 22.6746 166.125 22.5386C165.86 22.4025 165.559 22.3345 165.222 22.3345C164.886 22.3345 164.585 22.4025 164.32 22.5386C164.055 22.6746 163.83 22.8644 163.643 23.1079C163.461 23.3478 163.319 23.6343 163.219 23.9673C163.122 24.2967 163.074 24.6584 163.074 25.0522C163.074 25.4461 163.122 25.8096 163.219 26.1426C163.319 26.472 163.461 26.7585 163.643 27.002C163.83 27.2419 164.055 27.4299 164.32 27.5659C164.585 27.702 164.886 27.77 165.222 27.77ZM171.671 21.1045H174.083L175.469 27.249H175.49L176.876 21.1045H179.298V29H177.778V22.3989H177.757L176.258 29H174.652L173.213 22.3989H173.191V29H171.671V21.1045ZM181.95 25.0522C181.95 24.4614 182.028 23.9136 182.186 23.4087C182.344 22.9038 182.58 22.467 182.895 22.0981C183.21 21.7257 183.606 21.4339 184.082 21.2227C184.558 21.0114 185.113 20.9058 185.747 20.9058C186.331 20.9058 186.857 21.0114 187.326 21.2227C187.795 21.4339 188.193 21.7257 188.519 22.0981C188.848 22.467 189.1 22.9038 189.276 23.4087C189.451 23.9136 189.539 24.4614 189.539 25.0522C189.539 25.6395 189.451 26.1873 189.276 26.6958C189.1 27.2007 188.848 27.6393 188.519 28.0117C188.193 28.3805 187.795 28.6706 187.326 28.8818C186.857 29.0931 186.331 29.1987 185.747 29.1987C185.113 29.1987 184.558 29.0931 184.082 28.8818C183.606 28.6706 183.21 28.3805 182.895 28.0117C182.58 27.6393 182.344 27.2007 182.186 26.6958C182.028 26.1873 181.95 25.6395 181.95 25.0522ZM185.747 27.77C186.084 27.77 186.384 27.702 186.649 27.5659C186.914 27.4299 187.138 27.2419 187.321 27.002C187.507 26.7585 187.648 26.472 187.745 26.1426C187.842 25.8096 187.89 25.4461 187.89 25.0522C187.89 24.6584 187.842 24.2967 187.745 23.9673C187.648 23.6343 187.507 23.3478 187.321 23.1079C187.138 22.8644 186.914 22.6746 186.649 22.5386C186.384 22.4025 186.084 22.3345 185.747 22.3345C185.41 22.3345 185.11 22.4025 184.845 22.5386C184.58 22.6746 184.354 22.8644 184.168 23.1079C183.985 23.3478 183.844 23.6343 183.744 23.9673C183.647 24.2967 183.599 24.6584 183.599 25.0522C183.599 25.4461 183.647 25.8096 183.744 26.1426C183.844 26.472 183.985 26.7585 184.168 27.002C184.354 27.2419 184.58 27.4299 184.845 27.5659C185.11 27.702 185.41 27.77 185.747 27.77ZM191.68 25.208H194.763V26.6582H191.68V25.208ZM197.447 21.1045H199.096V24.3164L202.114 21.1045H204.247L201.024 24.3379L204.435 29H202.345L199.902 25.5034L199.096 26.3252V29H197.447V21.1045ZM206.324 25.0522C206.324 24.4614 206.402 23.9136 206.56 23.4087C206.717 22.9038 206.954 22.467 207.269 22.0981C207.584 21.7257 207.98 21.4339 208.456 21.2227C208.932 21.0114 209.487 20.9058 210.121 20.9058C210.705 20.9058 211.231 21.0114 211.7 21.2227C212.169 21.4339 212.567 21.7257 212.892 22.0981C213.222 22.467 213.474 22.9038 213.65 23.4087C213.825 23.9136 213.913 24.4614 213.913 25.0522C213.913 25.6395 213.825 26.1873 213.65 26.6958C213.474 27.2007 213.222 27.6393 212.892 28.0117C212.567 28.3805 212.169 28.6706 211.7 28.8818C211.231 29.0931 210.705 29.1987 210.121 29.1987C209.487 29.1987 208.932 29.0931 208.456 28.8818C207.98 28.6706 207.584 28.3805 207.269 28.0117C206.954 27.6393 206.717 27.2007 206.56 26.6958C206.402 26.1873 206.324 25.6395 206.324 25.0522ZM210.121 27.77C210.457 27.77 210.758 27.702 211.023 27.5659C211.288 27.4299 211.512 27.2419 211.695 27.002C211.881 26.7585 212.022 26.472 212.119 26.1426C212.216 25.8096 212.264 25.4461 212.264 25.0522C212.264 24.6584 212.216 24.2967 212.119 23.9673C212.022 23.6343 211.881 23.3478 211.695 23.1079C211.512 22.8644 211.288 22.6746 211.023 22.5386C210.758 22.4025 210.457 22.3345 210.121 22.3345C209.784 22.3345 209.484 22.4025 209.219 22.5386C208.954 22.6746 208.728 22.8644 208.542 23.1079C208.359 23.3478 208.218 23.6343 208.117 23.9673C208.021 24.2967 207.972 24.6584 207.972 25.0522C207.972 25.4461 208.021 25.8096 208.117 26.1426C208.218 26.472 208.359 26.7585 208.542 27.002C208.728 27.2419 208.954 27.4299 209.219 27.5659C209.484 27.702 209.784 27.77 210.121 27.77ZM215.936 27.6357H216.629C216.711 27.4137 216.792 27.1864 216.871 26.9536C216.953 26.7209 217.03 26.4684 217.101 26.1963C217.173 25.9242 217.238 25.6252 217.295 25.2993C217.356 24.9735 217.409 24.6064 217.456 24.1982C217.503 23.7865 217.54 23.3281 217.569 22.8232C217.597 22.3148 217.617 21.7419 217.628 21.1045H223.004V27.6357H223.772V30.6919H222.344V29H217.365V30.6919H215.936V27.6357ZM221.355 22.4634H219.078C219.074 22.6066 219.069 22.7892 219.062 23.0112C219.058 23.2332 219.048 23.4821 219.03 23.7578C219.012 24.0299 218.985 24.3254 218.949 24.644C218.917 24.9591 218.872 25.285 218.815 25.6216C218.758 25.9546 218.684 26.293 218.595 26.6367C218.509 26.9769 218.403 27.3099 218.278 27.6357H221.355V22.4634Z" fill="black"/>
</svg>
